<mxfile host="Electron" modified="2024-06-19T05:39:34.814Z" agent="Mozilla/5.0 (Macintosh; Intel Mac OS X 10_15_7) AppleWebKit/537.36 (KHTML, like Gecko) draw.io/21.6.8 Chrome/114.0.5735.289 Electron/25.5.0 Safari/537.36" etag="9i3cHDtXAGlGXQ-Sl-LE" version="21.6.8" type="device">
  <diagram name="Page-1" id="bwK0UIZFsj0zf2Y36u-I">
    <mxGraphModel dx="1242" dy="761" grid="1" gridSize="10" guides="1" tooltips="1" connect="1" arrows="1" fold="1" page="1" pageScale="1" pageWidth="800" pageHeight="800" math="0" shadow="0">
      <root>
        <mxCell id="0" />
        <mxCell id="1" parent="0" />
        <mxCell id="UjoNsz7D0VpmcB1TbgiO-28" value="i" style="text;html=1;align=center;verticalAlign=middle;resizable=0;points=[];autosize=1;strokeColor=none;fillColor=none;fontSize=62;" parent="1" vertex="1">
          <mxGeometry x="158" y="148" width="40" height="90" as="geometry" />
        </mxCell>
        <mxCell id="UjoNsz7D0VpmcB1TbgiO-29" value="U" style="text;html=1;align=center;verticalAlign=middle;resizable=0;points=[];autosize=1;strokeColor=none;fillColor=none;fontSize=62;" parent="1" vertex="1">
          <mxGeometry x="58" y="48" width="70" height="90" as="geometry" />
        </mxCell>
        <mxCell id="UjoNsz7D0VpmcB1TbgiO-30" value=")" style="text;html=1;align=center;verticalAlign=middle;resizable=0;points=[];autosize=1;strokeColor=none;fillColor=none;fontSize=62;" parent="1" vertex="1">
          <mxGeometry x="258" y="40" width="40" height="90" as="geometry" />
        </mxCell>
        <mxCell id="UjoNsz7D0VpmcB1TbgiO-31" value="O" style="text;html=1;align=center;verticalAlign=middle;resizable=0;points=[];autosize=1;strokeColor=none;fillColor=none;fontSize=62;" parent="1" vertex="1">
          <mxGeometry x="23" y="243" width="70" height="90" as="geometry" />
        </mxCell>
        <mxCell id="UjoNsz7D0VpmcB1TbgiO-32" value="✔️" style="text;html=1;align=center;verticalAlign=middle;resizable=0;points=[];autosize=1;strokeColor=none;fillColor=none;fontSize=55;" parent="1" vertex="1">
          <mxGeometry x="320" y="170" width="80" height="80" as="geometry" />
        </mxCell>
        <mxCell id="UjoNsz7D0VpmcB1TbgiO-33" value="~" style="text;html=1;align=center;verticalAlign=middle;resizable=0;points=[];autosize=1;strokeColor=none;fillColor=none;fontSize=62;" parent="1" vertex="1">
          <mxGeometry x="330" y="63" width="60" height="90" as="geometry" />
        </mxCell>
        <mxCell id="UjoNsz7D0VpmcB1TbgiO-34" value="" style="endArrow=classic;html=1;rounded=0;" parent="1" source="UjoNsz7D0VpmcB1TbgiO-29" edge="1">
          <mxGeometry width="50" height="50" relative="1" as="geometry">
            <mxPoint x="118" y="148" as="sourcePoint" />
            <mxPoint x="148" y="168" as="targetPoint" />
          </mxGeometry>
        </mxCell>
        <mxCell id="UjoNsz7D0VpmcB1TbgiO-35" value="" style="shape=waypoint;sketch=0;size=6;pointerEvents=1;points=[];fillColor=none;resizable=0;rotatable=0;perimeter=centerPerimeter;snapToPoint=1;fontSize=27;" parent="1" vertex="1">
          <mxGeometry x="168" y="278" width="20" height="20" as="geometry" />
        </mxCell>
        <mxCell id="UjoNsz7D0VpmcB1TbgiO-36" value="&lt;p style=&quot;line-height: 60%;&quot;&gt;—&lt;br&gt;a&lt;/p&gt;" style="text;html=1;align=center;verticalAlign=middle;resizable=0;points=[];autosize=1;strokeColor=none;fillColor=none;" parent="1" vertex="1">
          <mxGeometry x="93" y="138" width="40" height="50" as="geometry" />
        </mxCell>
        <mxCell id="UjoNsz7D0VpmcB1TbgiO-37" value="&lt;p style=&quot;line-height: 60%;&quot;&gt;—&lt;br&gt;i&lt;/p&gt;" style="text;html=1;align=center;verticalAlign=middle;resizable=0;points=[];autosize=1;strokeColor=none;fillColor=none;" parent="1" vertex="1">
          <mxGeometry x="228" y="138" width="40" height="50" as="geometry" />
        </mxCell>
        <mxCell id="UjoNsz7D0VpmcB1TbgiO-38" value="" style="endArrow=classic;html=1;rounded=0;" parent="1" edge="1">
          <mxGeometry width="50" height="50" relative="1" as="geometry">
            <mxPoint x="238" y="138" as="sourcePoint" />
            <mxPoint x="218" y="168" as="targetPoint" />
          </mxGeometry>
        </mxCell>
        <mxCell id="UjoNsz7D0VpmcB1TbgiO-39" value="" style="endArrow=classic;html=1;rounded=0;" parent="1" edge="1">
          <mxGeometry width="50" height="50" relative="1" as="geometry">
            <mxPoint x="178.77999999999997" y="221" as="sourcePoint" />
            <mxPoint x="178.77999999999997" y="268" as="targetPoint" />
          </mxGeometry>
        </mxCell>
        <mxCell id="UjoNsz7D0VpmcB1TbgiO-40" value="&lt;p style=&quot;line-height: 60%;&quot;&gt;—&lt;br&gt;U&lt;/p&gt;" style="text;html=1;align=center;verticalAlign=middle;resizable=0;points=[];autosize=1;strokeColor=none;fillColor=none;" parent="1" vertex="1">
          <mxGeometry x="188" y="218" width="40" height="50" as="geometry" />
        </mxCell>
        <mxCell id="UjoNsz7D0VpmcB1TbgiO-41" value="" style="endArrow=classic;html=1;rounded=0;" parent="1" edge="1">
          <mxGeometry width="50" height="50" relative="1" as="geometry">
            <mxPoint x="98" y="288" as="sourcePoint" />
            <mxPoint x="148" y="288" as="targetPoint" />
          </mxGeometry>
        </mxCell>
        <mxCell id="UjoNsz7D0VpmcB1TbgiO-42" value="&lt;p style=&quot;line-height: 60%;&quot;&gt;—&lt;br&gt;o&lt;/p&gt;" style="text;html=1;align=center;verticalAlign=middle;resizable=0;points=[];autosize=1;strokeColor=none;fillColor=none;" parent="1" vertex="1">
          <mxGeometry x="98" y="238" width="40" height="50" as="geometry" />
        </mxCell>
        <mxCell id="5B0sNMSIDLG1Z4UpjkS7-1" value="&lt;p style=&quot;line-height: 60%;&quot;&gt;—&lt;br&gt;e&lt;/p&gt;" style="text;html=1;align=center;verticalAlign=middle;resizable=0;points=[];autosize=1;strokeColor=none;fillColor=none;" parent="1" vertex="1">
          <mxGeometry x="175" y="178" width="40" height="50" as="geometry" />
        </mxCell>
        <mxCell id="X6adg0pOkJI6-cHAakOM-1" value="i" style="text;html=1;align=center;verticalAlign=middle;resizable=0;points=[];autosize=1;strokeColor=none;fillColor=none;fontSize=62;" parent="1" vertex="1">
          <mxGeometry x="505" y="175" width="40" height="90" as="geometry" />
        </mxCell>
        <mxCell id="X6adg0pOkJI6-cHAakOM-2" value="U" style="text;html=1;align=center;verticalAlign=middle;resizable=0;points=[];autosize=1;strokeColor=none;fillColor=none;fontSize=62;" parent="1" vertex="1">
          <mxGeometry x="485" y="23" width="70" height="90" as="geometry" />
        </mxCell>
        <mxCell id="X6adg0pOkJI6-cHAakOM-3" value=")" style="text;html=1;align=center;verticalAlign=middle;resizable=0;points=[];autosize=1;strokeColor=none;fillColor=none;fontSize=62;" parent="1" vertex="1">
          <mxGeometry x="505" y="95" width="40" height="90" as="geometry" />
        </mxCell>
        <mxCell id="X6adg0pOkJI6-cHAakOM-4" value="O" style="text;html=1;align=center;verticalAlign=middle;resizable=0;points=[];autosize=1;strokeColor=none;fillColor=none;fontSize=62;" parent="1" vertex="1">
          <mxGeometry x="490" y="245" width="70" height="90" as="geometry" />
        </mxCell>
        <mxCell id="X6adg0pOkJI6-cHAakOM-16" value="~" style="text;html=1;align=center;verticalAlign=middle;resizable=0;points=[];autosize=1;strokeColor=none;fillColor=none;fontSize=62;" parent="1" vertex="1">
          <mxGeometry x="495" y="404" width="60" height="90" as="geometry" />
        </mxCell>
        <mxCell id="X6adg0pOkJI6-cHAakOM-17" value="" style="shape=waypoint;sketch=0;size=6;pointerEvents=1;points=[];fillColor=none;resizable=0;rotatable=0;perimeter=centerPerimeter;snapToPoint=1;fontSize=6;" parent="1" vertex="1">
          <mxGeometry x="515" y="351" width="20" height="20" as="geometry" />
        </mxCell>
        <mxCell id="X6adg0pOkJI6-cHAakOM-24" value="" style="endArrow=classic;html=1;rounded=0;" parent="1" edge="1">
          <mxGeometry width="50" height="50" relative="1" as="geometry">
            <mxPoint x="585" y="67.69" as="sourcePoint" />
            <mxPoint x="695" y="67.69" as="targetPoint" />
          </mxGeometry>
        </mxCell>
        <mxCell id="X6adg0pOkJI6-cHAakOM-25" value="" style="endArrow=classic;html=1;rounded=0;" parent="1" edge="1">
          <mxGeometry width="50" height="50" relative="1" as="geometry">
            <mxPoint x="585" y="137.69" as="sourcePoint" />
            <mxPoint x="695" y="137.69" as="targetPoint" />
          </mxGeometry>
        </mxCell>
        <mxCell id="X6adg0pOkJI6-cHAakOM-26" value="" style="endArrow=classic;html=1;rounded=0;" parent="1" edge="1">
          <mxGeometry width="50" height="50" relative="1" as="geometry">
            <mxPoint x="585" y="213" as="sourcePoint" />
            <mxPoint x="695" y="213" as="targetPoint" />
          </mxGeometry>
        </mxCell>
        <mxCell id="X6adg0pOkJI6-cHAakOM-27" value="" style="endArrow=classic;html=1;rounded=0;" parent="1" edge="1">
          <mxGeometry width="50" height="50" relative="1" as="geometry">
            <mxPoint x="585" y="283" as="sourcePoint" />
            <mxPoint x="695" y="283" as="targetPoint" />
          </mxGeometry>
        </mxCell>
        <mxCell id="X6adg0pOkJI6-cHAakOM-28" value="" style="endArrow=classic;html=1;rounded=0;" parent="1" edge="1">
          <mxGeometry width="50" height="50" relative="1" as="geometry">
            <mxPoint x="585" y="620.5" as="sourcePoint" />
            <mxPoint x="695" y="620.5" as="targetPoint" />
          </mxGeometry>
        </mxCell>
        <mxCell id="X6adg0pOkJI6-cHAakOM-29" value="" style="endArrow=classic;html=1;rounded=0;" parent="1" edge="1">
          <mxGeometry width="50" height="50" relative="1" as="geometry">
            <mxPoint x="585" y="444" as="sourcePoint" />
            <mxPoint x="695" y="444" as="targetPoint" />
          </mxGeometry>
        </mxCell>
        <mxCell id="X6adg0pOkJI6-cHAakOM-30" value="" style="endArrow=classic;html=1;rounded=0;" parent="1" edge="1">
          <mxGeometry width="50" height="50" relative="1" as="geometry">
            <mxPoint x="585" y="356.30999999999995" as="sourcePoint" />
            <mxPoint x="695" y="356.30999999999995" as="targetPoint" />
          </mxGeometry>
        </mxCell>
        <mxCell id="X6adg0pOkJI6-cHAakOM-31" value="" style="endArrow=classic;html=1;rounded=0;" parent="1" edge="1">
          <mxGeometry width="50" height="50" relative="1" as="geometry">
            <mxPoint x="585" y="525.31" as="sourcePoint" />
            <mxPoint x="695" y="525.31" as="targetPoint" />
          </mxGeometry>
        </mxCell>
        <mxCell id="X6adg0pOkJI6-cHAakOM-32" value="^" style="text;html=1;align=center;verticalAlign=middle;resizable=0;points=[];autosize=1;strokeColor=none;fillColor=none;fontSize=62;" parent="1" vertex="1">
          <mxGeometry x="335" y="275" width="50" height="90" as="geometry" />
        </mxCell>
        <mxCell id="X6adg0pOkJI6-cHAakOM-34" value="n" style="text;html=1;align=center;verticalAlign=middle;resizable=0;points=[];autosize=1;strokeColor=none;fillColor=none;fontSize=72;" parent="1" vertex="1">
          <mxGeometry x="715" y="10" width="60" height="100" as="geometry" />
        </mxCell>
        <mxCell id="X6adg0pOkJI6-cHAakOM-35" value="n" style="text;html=1;align=center;verticalAlign=middle;resizable=0;points=[];autosize=1;strokeColor=none;fillColor=none;fontSize=72;" parent="1" vertex="1">
          <mxGeometry x="715" y="83" width="60" height="100" as="geometry" />
        </mxCell>
        <mxCell id="X6adg0pOkJI6-cHAakOM-36" value="n" style="text;html=1;align=center;verticalAlign=middle;resizable=0;points=[];autosize=1;strokeColor=none;fillColor=none;fontSize=72;" parent="1" vertex="1">
          <mxGeometry x="715" y="158" width="60" height="100" as="geometry" />
        </mxCell>
        <mxCell id="X6adg0pOkJI6-cHAakOM-37" value="n" style="text;html=1;align=center;verticalAlign=middle;resizable=0;points=[];autosize=1;strokeColor=none;fillColor=none;fontSize=72;" parent="1" vertex="1">
          <mxGeometry x="715" y="231" width="60" height="100" as="geometry" />
        </mxCell>
        <mxCell id="X6adg0pOkJI6-cHAakOM-38" value="n" style="text;html=1;align=center;verticalAlign=middle;resizable=0;points=[];autosize=1;strokeColor=none;fillColor=none;fontSize=72;" parent="1" vertex="1">
          <mxGeometry x="715" y="570" width="60" height="100" as="geometry" />
        </mxCell>
        <mxCell id="X6adg0pOkJI6-cHAakOM-39" value="n" style="text;html=1;align=center;verticalAlign=middle;resizable=0;points=[];autosize=1;strokeColor=none;fillColor=none;fontSize=72;" parent="1" vertex="1">
          <mxGeometry x="715" y="400" width="60" height="100" as="geometry" />
        </mxCell>
        <mxCell id="X6adg0pOkJI6-cHAakOM-40" value="n" style="text;html=1;align=center;verticalAlign=middle;resizable=0;points=[];autosize=1;strokeColor=none;fillColor=none;fontSize=72;" parent="1" vertex="1">
          <mxGeometry x="715" y="310" width="60" height="100" as="geometry" />
        </mxCell>
        <mxCell id="X6adg0pOkJI6-cHAakOM-41" value="n" style="text;html=1;align=center;verticalAlign=middle;resizable=0;points=[];autosize=1;strokeColor=none;fillColor=none;fontSize=72;" parent="1" vertex="1">
          <mxGeometry x="715" y="470" width="60" height="100" as="geometry" />
        </mxCell>
        <mxCell id="niKhYs8LxsZ_c49V30Fq-2" value="✔️" style="text;html=1;align=center;verticalAlign=middle;resizable=0;points=[];autosize=1;strokeColor=none;fillColor=none;fontSize=55;" parent="1" vertex="1">
          <mxGeometry x="490" y="490" width="80" height="80" as="geometry" />
        </mxCell>
        <mxCell id="n-R19XZUiL9MR-esLbjD-1" value="^" style="text;html=1;align=center;verticalAlign=middle;resizable=0;points=[];autosize=1;strokeColor=none;fillColor=none;fontSize=62;" vertex="1" parent="1">
          <mxGeometry x="500" y="590" width="50" height="90" as="geometry" />
        </mxCell>
      </root>
    </mxGraphModel>
  </diagram>
</mxfile>
